<svg xmlns="http://www.w3.org/2000/svg" xmlns:xlink="http://www.w3.org/1999/xlink" width="70" zoomAndPan="magnify" viewBox="0 0 52.5 50.249999" height="67" preserveAspectRatio="xMidYMid meet" version="1.0"><path fill="#4b4949" d="M 43.859375 16.265625 C 43.753906 16.078125 43.597656 15.949219 43.390625 15.890625 C 43.183594 15.828125 42.984375 15.847656 42.792969 15.949219 C 42.601562 16.050781 42.472656 16.203125 42.410156 16.410156 C 42.34375 16.617188 42.359375 16.816406 42.457031 17.011719 C 49.761719 30.433594 39.5 47.460938 24.195312 47.265625 C 23.519531 47.265625 22.84375 47.230469 22.171875 47.164062 C 21.5 47.097656 20.832031 46.996094 20.167969 46.863281 C 19.503906 46.730469 18.851562 46.566406 18.203125 46.371094 C 17.558594 46.175781 16.921875 45.945312 16.296875 45.6875 C 15.675781 45.429688 15.0625 45.140625 14.46875 44.820312 C 13.871094 44.503906 13.292969 44.15625 12.730469 43.777344 C 12.171875 43.402344 11.628906 43 11.105469 42.574219 C 10.582031 42.144531 10.082031 41.691406 9.605469 41.210938 C 9.128906 40.734375 8.675781 40.234375 8.246094 39.710938 C 7.816406 39.191406 7.414062 38.648438 7.039062 38.085938 C 6.664062 37.523438 6.316406 36.945312 5.996094 36.351562 C 5.679688 35.753906 5.390625 35.144531 5.128906 34.519531 C 4.871094 33.894531 4.644531 33.261719 4.449219 32.613281 C 4.25 31.96875 4.085938 31.3125 3.953125 30.648438 C 3.820312 29.988281 3.722656 29.320312 3.65625 28.648438 C 3.589844 27.972656 3.554688 27.300781 3.554688 26.625 C 3.363281 11.316406 20.382812 1.058594 33.808594 8.359375 C 34.003906 8.464844 34.203125 8.484375 34.414062 8.417969 C 34.625 8.355469 34.777344 8.226562 34.882812 8.03125 C 34.984375 7.835938 35.003906 7.636719 34.941406 7.425781 C 34.875 7.21875 34.746094 7.0625 34.550781 6.957031 C 33.808594 6.566406 33.046875 6.21875 32.261719 5.914062 C 31.480469 5.609375 30.679688 5.347656 29.867188 5.132812 C 29.054688 4.917969 28.234375 4.75 27.402344 4.628906 C 26.570312 4.507812 25.734375 4.433594 24.894531 4.40625 C 24.054688 4.382812 23.214844 4.402344 22.375 4.472656 C 21.539062 4.539062 20.707031 4.65625 19.882812 4.820312 C 19.058594 4.980469 18.246094 5.191406 17.445312 5.445312 C 16.644531 5.699219 15.859375 6 15.09375 6.34375 C 14.328125 6.6875 13.582031 7.074219 12.859375 7.503906 C 12.136719 7.933594 11.4375 8.402344 10.769531 8.910156 C 10.097656 9.414062 9.460938 9.960938 8.851562 10.539062 C 8.242188 11.121094 7.671875 11.734375 7.132812 12.378906 C 6.59375 13.023438 6.09375 13.695312 5.628906 14.398438 C 5.167969 15.101562 4.746094 15.828125 4.367188 16.578125 C 3.984375 17.328125 3.648438 18.09375 3.355469 18.882812 C 3.0625 19.671875 2.816406 20.472656 2.617188 21.289062 C 2.414062 22.105469 2.257812 22.929688 2.152344 23.761719 C 2.042969 24.597656 1.980469 25.433594 1.96875 26.273438 C 1.953125 27.113281 1.988281 27.953125 2.070312 28.789062 C 2.152344 29.625 2.28125 30.457031 2.457031 31.277344 C 2.632812 32.101562 2.855469 32.910156 3.125 33.707031 C 3.390625 34.503906 3.703125 35.28125 4.058594 36.042969 C 4.414062 36.804688 4.8125 37.542969 5.253906 38.257812 C 5.695312 38.976562 6.171875 39.664062 6.691406 40.328125 C 7.210938 40.988281 7.761719 41.617188 8.351562 42.21875 C 8.941406 42.816406 9.5625 43.378906 10.21875 43.910156 C 10.871094 44.4375 11.550781 44.925781 12.261719 45.378906 C 12.972656 45.828125 13.703125 46.238281 14.460938 46.609375 C 15.214844 46.976562 15.988281 47.300781 16.78125 47.582031 C 17.574219 47.859375 18.378906 48.09375 19.199219 48.285156 C 20.019531 48.472656 20.84375 48.613281 21.679688 48.710938 C 22.515625 48.804688 23.351562 48.851562 24.195312 48.851562 C 40.679688 49.058594 51.730469 30.726562 43.859375 16.265625 Z M 43.859375 16.265625 " fill-opacity="1" fill-rule="nonzero"/><path fill="#4b4949" d="M 24.195312 20.273438 C 24.886719 20.273438 25.558594 20.386719 26.214844 20.613281 C 26.421875 20.683594 26.621094 20.671875 26.820312 20.574219 C 27.015625 20.476562 27.152344 20.328125 27.222656 20.121094 C 27.570312 18.714844 25.097656 18.769531 24.195312 18.6875 C 13.664062 19.121094 13.664062 34.128906 24.195312 34.5625 C 24.714844 34.5625 25.230469 34.511719 25.742188 34.410156 C 26.253906 34.308594 26.75 34.15625 27.230469 33.957031 C 27.710938 33.757812 28.167969 33.511719 28.601562 33.222656 C 29.035156 32.933594 29.4375 32.605469 29.804688 32.234375 C 30.171875 31.867188 30.503906 31.464844 30.792969 31.03125 C 31.082031 30.601562 31.324219 30.140625 31.527344 29.660156 C 31.726562 29.179688 31.875 28.683594 31.976562 28.171875 C 32.082031 27.660156 32.132812 27.144531 32.132812 26.625 C 32.050781 25.703125 32.105469 23.257812 30.707031 23.605469 C 30.5 23.675781 30.347656 23.808594 30.25 24.007812 C 30.15625 24.203125 30.144531 24.40625 30.214844 24.613281 C 30.4375 25.265625 30.546875 25.9375 30.542969 26.625 C 30.226562 35.035156 18.160156 35.039062 17.84375 26.625 C 17.84375 26.207031 17.882812 25.792969 17.964844 25.386719 C 18.046875 24.976562 18.167969 24.582031 18.328125 24.195312 C 18.488281 23.808594 18.683594 23.445312 18.914062 23.097656 C 19.148438 22.75 19.410156 22.429688 19.707031 22.136719 C 20 21.839844 20.320312 21.578125 20.667969 21.347656 C 21.011719 21.113281 21.378906 20.917969 21.765625 20.757812 C 22.148438 20.597656 22.546875 20.480469 22.957031 20.398438 C 23.363281 20.316406 23.777344 20.273438 24.195312 20.273438 Z M 24.195312 20.273438 " fill-opacity="1" fill-rule="nonzero"/><path fill="#4b4949" d="M 31.792969 14.507812 C 31.902344 14.316406 31.925781 14.113281 31.863281 13.902344 C 31.804688 13.691406 31.675781 13.535156 31.484375 13.425781 C 29.21875 12.171875 26.785156 11.542969 24.195312 11.542969 C 4.1875 12.367188 4.1875 40.882812 24.195312 41.707031 C 24.847656 41.707031 25.496094 41.667969 26.144531 41.582031 C 26.792969 41.5 27.433594 41.371094 28.0625 41.203125 C 28.695312 41.039062 29.3125 40.832031 29.917969 40.582031 C 30.523438 40.335938 31.109375 40.050781 31.675781 39.726562 C 32.242188 39.402344 32.785156 39.042969 33.308594 38.648438 C 33.828125 38.253906 34.320312 37.828125 34.785156 37.367188 C 35.25 36.910156 35.683594 36.421875 36.085938 35.910156 C 36.488281 35.394531 36.855469 34.855469 37.1875 34.292969 C 37.519531 33.730469 37.8125 33.148438 38.070312 32.546875 C 38.324219 31.945312 38.542969 31.332031 38.71875 30.703125 C 38.894531 30.074219 39.027344 29.433594 39.121094 28.789062 C 39.214844 28.140625 39.265625 27.492188 39.277344 26.839844 C 39.285156 26.1875 39.25 25.535156 39.175781 24.886719 C 39.101562 24.238281 38.984375 23.597656 38.824219 22.964844 C 38.664062 22.328125 38.464844 21.710938 38.226562 21.101562 C 37.984375 20.492188 37.707031 19.90625 37.390625 19.332031 C 37.285156 19.140625 37.125 19.011719 36.914062 18.953125 C 36.703125 18.890625 36.503906 18.914062 36.3125 19.019531 C 36.117188 19.128906 35.992188 19.285156 35.933594 19.496094 C 35.871094 19.710938 35.894531 19.910156 36.003906 20.101562 C 41.035156 28.828125 34.273438 40.296875 24.195312 40.121094 C 23.308594 40.117188 22.429688 40.03125 21.5625 39.859375 C 20.691406 39.683594 19.847656 39.429688 19.03125 39.089844 C 18.214844 38.75 17.4375 38.332031 16.699219 37.839844 C 15.964844 37.347656 15.28125 36.789062 14.65625 36.164062 C 14.027344 35.535156 13.46875 34.855469 12.976562 34.117188 C 12.484375 33.382812 12.070312 32.605469 11.730469 31.785156 C 11.390625 30.96875 11.132812 30.125 10.960938 29.257812 C 10.785156 28.386719 10.699219 27.511719 10.699219 26.625 C 10.523438 16.542969 21.988281 9.78125 30.714844 14.816406 C 30.90625 14.921875 31.109375 14.945312 31.320312 14.886719 C 31.53125 14.824219 31.6875 14.699219 31.792969 14.507812 Z M 31.792969 14.507812 " fill-opacity="1" fill-rule="nonzero"/><path fill="#4b4949" d="M 44.960938 11.46875 L 39.183594 17.25 C 39.027344 17.402344 38.84375 17.476562 38.625 17.480469 L 38.5625 17.480469 L 34.761719 17.1875 L 24.757812 27.1875 C 24.601562 27.339844 24.414062 27.410156 24.199219 27.410156 C 23.980469 27.40625 23.796875 27.328125 23.640625 27.175781 C 23.488281 27.023438 23.410156 26.835938 23.410156 26.621094 C 23.40625 26.402344 23.480469 26.21875 23.628906 26.0625 L 33.632812 16.058594 L 33.339844 12.253906 C 33.324219 12.015625 33.398438 11.808594 33.570312 11.636719 L 39.347656 5.855469 C 39.589844 5.621094 39.867188 5.5625 40.183594 5.679688 C 40.5 5.796875 40.675781 6.023438 40.707031 6.355469 L 40.96875 9.851562 L 44.460938 10.113281 C 44.796875 10.144531 45.023438 10.316406 45.140625 10.632812 C 45.253906 10.949219 45.195312 11.226562 44.960938 11.46875 Z M 44.960938 11.46875 " fill-opacity="1" fill-rule="nonzero"/></svg>