<svg xmlns="http://www.w3.org/2000/svg" xmlns:xlink="http://www.w3.org/1999/xlink" width="64" zoomAndPan="magnify" viewBox="0 0 48 41.25" height="55" preserveAspectRatio="xMidYMid meet" version="1.0"><defs><clipPath id="c7c7bdbbbb"><path d="M 0.429688 25 L 11 25 L 11 32 L 0.429688 32 Z M 0.429688 25 " clip-rule="nonzero"/></clipPath><clipPath id="c2eaa74348"><path d="M 36 25 L 47.570312 25 L 47.570312 32 L 36 32 Z M 36 25 " clip-rule="nonzero"/></clipPath><clipPath id="34cc53ad20"><path d="M 3 19 L 44 19 L 44 40.511719 L 3 40.511719 Z M 3 19 " clip-rule="nonzero"/></clipPath></defs><path fill="#267504" d="M 38.085938 10.871094 L 25.539062 10.871094 L 25.539062 2.507812 L 38.085938 2.507812 L 34.742188 6.691406 Z M 38.085938 10.871094 " fill-opacity="1" fill-rule="nonzero"/><g clip-path="url(#c7c7bdbbbb)"><path fill="#4b4949" d="M 1.285156 31.429688 C 1.054688 31.429688 0.855469 31.351562 0.691406 31.1875 C 0.527344 31.023438 0.445312 30.828125 0.445312 30.59375 C 0.445312 30.363281 0.527344 30.164062 0.691406 30 L 4.949219 25.742188 C 5.183594 25.507812 5.457031 25.328125 5.761719 25.199219 C 6.070312 25.074219 6.390625 25.007812 6.722656 25.007812 C 7.054688 25.007812 7.375 25.074219 7.683594 25.199219 C 7.988281 25.328125 8.261719 25.507812 8.496094 25.742188 L 10.738281 27.976562 C 10.898438 28.140625 10.980469 28.335938 10.980469 28.566406 C 10.980469 28.796875 10.898438 28.992188 10.738281 29.15625 C 10.574219 29.320312 10.375 29.402344 10.144531 29.402344 C 9.910156 29.402344 9.710938 29.320312 9.550781 29.15625 L 7.308594 26.929688 C 7.144531 26.769531 6.949219 26.691406 6.722656 26.691406 C 6.496094 26.691406 6.300781 26.769531 6.136719 26.929688 L 1.878906 31.195312 C 1.714844 31.355469 1.515625 31.433594 1.285156 31.429688 Z M 1.285156 31.429688 " fill-opacity="1" fill-rule="nonzero"/></g><g clip-path="url(#c2eaa74348)"><path fill="#4b4949" d="M 46.449219 31.429688 C 46.21875 31.429688 46.019531 31.351562 45.855469 31.1875 L 41.597656 26.929688 C 41.4375 26.769531 41.242188 26.691406 41.011719 26.691406 C 40.785156 26.691406 40.589844 26.769531 40.425781 26.929688 L 38.261719 29.097656 C 38.097656 29.257812 37.902344 29.339844 37.671875 29.339844 C 37.441406 29.339844 37.246094 29.257812 37.082031 29.097656 C 36.917969 28.933594 36.835938 28.734375 36.835938 28.503906 C 36.835938 28.269531 36.917969 28.074219 37.082031 27.910156 L 39.238281 25.75 C 39.476562 25.515625 39.746094 25.335938 40.054688 25.207031 C 40.359375 25.082031 40.679688 25.019531 41.011719 25.019531 C 41.34375 25.019531 41.664062 25.082031 41.972656 25.207031 C 42.28125 25.335938 42.550781 25.515625 42.785156 25.75 L 47.042969 30 C 47.207031 30.164062 47.289062 30.363281 47.289062 30.59375 C 47.289062 30.828125 47.207031 31.023438 47.042969 31.1875 C 46.878906 31.351562 46.679688 31.429688 46.449219 31.429688 Z M 46.449219 31.429688 " fill-opacity="1" fill-rule="nonzero"/></g><g clip-path="url(#34cc53ad20)"><path fill="#4b4949" d="M 43.730469 38.714844 L 25.640625 20.632812 C 25.402344 20.40625 25.128906 20.230469 24.824219 20.105469 C 24.515625 19.984375 24.199219 19.921875 23.867188 19.921875 C 23.539062 19.921875 23.21875 19.984375 22.914062 20.105469 C 22.605469 20.230469 22.332031 20.40625 22.09375 20.632812 L 4.003906 38.714844 C 3.878906 38.832031 3.796875 38.972656 3.761719 39.140625 C 3.722656 39.304688 3.734375 39.46875 3.796875 39.625 C 3.863281 39.792969 3.976562 39.925781 4.128906 40.023438 C 4.28125 40.117188 4.449219 40.160156 4.632812 40.144531 L 43.105469 40.144531 C 43.476562 40.144531 43.730469 39.96875 43.875 39.625 C 44.027344 39.292969 43.980469 38.988281 43.730469 38.714844 Z M 23.28125 21.804688 C 23.445312 21.644531 23.640625 21.566406 23.867188 21.566406 C 24.09375 21.566406 24.289062 21.644531 24.453125 21.804688 L 29.578125 26.929688 L 24.878906 31.621094 C 24.746094 31.757812 24.589844 31.859375 24.414062 31.933594 C 24.238281 32.007812 24.058594 32.042969 23.867188 32.042969 C 23.679688 32.042969 23.496094 32.007812 23.320312 31.933594 C 23.144531 31.859375 22.988281 31.757812 22.855469 31.621094 L 18.15625 26.929688 Z M 6.621094 38.472656 L 16.96875 28.117188 L 21.667969 32.820312 C 21.960938 33.109375 22.296875 33.332031 22.679688 33.488281 C 23.058594 33.644531 23.457031 33.722656 23.867188 33.722656 C 24.28125 33.722656 24.675781 33.644531 25.058594 33.488281 C 25.4375 33.332031 25.773438 33.109375 26.066406 32.820312 L 30.765625 28.125 L 41.121094 38.472656 Z M 6.621094 38.472656 " fill-opacity="1" fill-rule="nonzero"/></g><path fill="#4b4949" d="M 34.136719 5.019531 L 37.066406 1.355469 C 37.261719 1.09375 37.292969 0.816406 37.164062 0.519531 C 37.027344 0.183594 36.777344 0.0078125 36.414062 0 L 23.867188 0 C 23.636719 0 23.441406 0.0820312 23.277344 0.246094 C 23.113281 0.410156 23.03125 0.605469 23.03125 0.835938 L 23.03125 17.5625 C 23.03125 17.792969 23.113281 17.992188 23.277344 18.15625 C 23.441406 18.316406 23.636719 18.398438 23.867188 18.398438 C 24.097656 18.398438 24.296875 18.316406 24.460938 18.15625 C 24.621094 17.992188 24.703125 17.792969 24.703125 17.5625 L 24.703125 10.035156 L 36.414062 10.035156 C 36.765625 10.035156 37.015625 9.875 37.164062 9.558594 C 37.3125 9.246094 37.28125 8.953125 37.066406 8.679688 Z M 24.703125 8.363281 L 24.703125 1.671875 L 34.671875 1.671875 L 32.414062 4.5 C 32.296875 4.652344 32.234375 4.824219 32.234375 5.019531 C 32.234375 5.210938 32.296875 5.382812 32.414062 5.535156 L 34.671875 8.363281 Z M 24.703125 8.363281 " fill-opacity="1" fill-rule="nonzero"/></svg>