<svg width="48" height="48" viewBox="0 0 48 48" fill="none" xmlns="http://www.w3.org/2000/svg">
<path d="M41.3267 37.5419C41.3267 37.5419 39.0093 39.8179 38.4414 40.4852C37.5163 41.4724 36.4264 41.9386 34.9975 41.9386C34.8601 41.9386 34.7136 41.9386 34.5762 41.9294C31.8558 41.7558 29.3279 40.6954 27.4319 39.7905C22.2476 37.286 17.6954 33.7302 13.9126 29.2239C10.7892 25.4671 8.70089 21.9936 7.31782 18.2642C6.46599 15.9882 6.15457 14.2149 6.29197 12.5421C6.38356 11.4727 6.79573 10.586 7.55596 9.82736L10.6793 6.71039C11.1281 6.28992 11.6044 6.0614 12.0715 6.0614C12.6486 6.0614 13.1157 6.40875 13.4088 6.70125C13.418 6.71039 13.4271 6.71953 13.4363 6.72867C13.995 7.24969 14.5263 7.78899 15.085 8.36485C15.3689 8.65736 15.662 8.94986 15.9551 9.2515L18.4556 11.7469C19.4265 12.7158 19.4265 13.6116 18.4556 14.5805C18.19 14.8456 17.9336 15.1107 17.6679 15.3666C16.8985 16.1527 17.5029 15.5495 16.7061 16.2625C16.6878 16.2808 16.6694 16.2899 16.6603 16.3082C15.8726 17.0943 16.0191 17.8621 16.184 18.3832C16.1932 18.4106 16.2023 18.438 16.2115 18.4654C16.8618 20.0376 17.7777 21.5184 19.17 23.2826L19.1791 23.2917C21.7071 26.3995 24.3725 28.8218 27.3127 30.6774C27.6882 30.915 28.0729 31.107 28.4393 31.2898C28.769 31.4543 29.0804 31.6097 29.346 31.7742C29.3827 31.7925 29.4193 31.82 29.456 31.8382C29.7674 31.9936 30.0605 32.0668 30.3627 32.0668C31.123 32.0668 31.5993 31.5914 31.755 31.436L33.5503 29.6444C33.8617 29.3336 34.3564 28.9588 34.9334 28.9588C35.5013 28.9588 35.9684 29.3153 36.2524 29.6261C36.2615 29.6352 36.2615 29.6352 36.2707 29.6444L41.3175 34.6809C42.2609 35.6132 41.3267 37.5419 41.3267 37.5419Z" stroke="#26760B" stroke-width="2" stroke-linecap="round" stroke-linejoin="round"/>
</svg>
