<svg xmlns="http://www.w3.org/2000/svg" xmlns:xlink="http://www.w3.org/1999/xlink" width="68" zoomAndPan="magnify" viewBox="0 0 50.879997 50.249999" height="67" preserveAspectRatio="xMidYMid meet" version="1.0"><defs><clipPath id="9d3f4c5a72"><path d="M 0.316406 7 L 45 7 L 45 27 L 0.316406 27 Z M 0.316406 7 " clip-rule="nonzero"/></clipPath><clipPath id="e589e40382"><path d="M 5 23 L 49.824219 23 L 49.824219 42 L 5 42 Z M 5 23 " clip-rule="nonzero"/></clipPath><clipPath id="47efa741f8"><path d="M 24 44 L 26 44 L 26 49.511719 L 24 49.511719 Z M 24 44 " clip-rule="nonzero"/></clipPath></defs><path fill="#4b4949" d="M 24.421875 16.828125 C 21.628906 17.140625 19.40625 19.425781 19.136719 22.265625 C 18.945312 24.265625 19.734375 26.230469 21.246094 27.519531 C 21.542969 27.765625 21.710938 28.132812 21.710938 28.515625 L 21.710938 30.332031 C 21.710938 31.683594 22.789062 32.777344 24.109375 32.777344 L 26.105469 32.777344 C 27.425781 32.777344 28.503906 31.683594 28.503906 30.332031 L 28.503906 28.597656 C 28.503906 28.15625 28.671875 27.757812 28.953125 27.519531 C 30.320312 26.359375 31.105469 24.664062 31.105469 22.863281 C 31.105469 21.066406 30.359375 19.460938 29.074219 18.300781 C 27.792969 17.15625 26.140625 16.628906 24.429688 16.820312 Z M 26.097656 31.179688 L 24.101562 31.179688 C 23.660156 31.179688 23.300781 30.804688 23.300781 30.332031 L 23.300781 29.507812 L 26.898438 29.5625 L 26.898438 30.332031 C 26.898438 30.796875 26.539062 31.179688 26.097656 31.179688 Z M 28 19.5 C 28.953125 20.347656 29.496094 21.578125 29.496094 22.863281 C 29.496094 24.152344 28.921875 25.445312 27.914062 26.300781 C 27.425781 26.71875 27.089844 27.308594 26.960938 27.964844 L 25.898438 27.949219 L 25.898438 25.910156 L 28.066406 23.746094 L 26.9375 22.617188 L 25.109375 24.449219 L 23.277344 22.617188 L 22.148438 23.746094 L 24.316406 25.910156 L 24.316406 27.925781 L 23.253906 27.910156 C 23.117188 27.285156 22.789062 26.71875 22.292969 26.292969 C 21.183594 25.34375 20.597656 23.886719 20.742188 22.410156 C 20.941406 20.355469 22.605469 18.636719 24.613281 18.410156 C 24.78125 18.394531 24.949219 18.378906 25.117188 18.378906 C 26.1875 18.378906 27.203125 18.761719 28.011719 19.492188 Z M 28 19.5 " fill-opacity="1" fill-rule="nonzero"/><path fill="#4b4949" d="M 13.109375 24.785156 C 13.109375 31.394531 18.488281 36.777344 25.101562 36.777344 C 31.710938 36.777344 37.09375 31.394531 37.09375 24.785156 C 37.09375 18.171875 31.710938 12.792969 25.101562 12.792969 C 18.488281 12.792969 13.109375 18.171875 13.109375 24.785156 Z M 35.492188 24.785156 C 35.492188 30.515625 30.832031 35.175781 25.101562 35.175781 C 19.367188 35.175781 14.707031 30.515625 14.707031 24.785156 C 14.707031 19.050781 19.367188 14.390625 25.101562 14.390625 C 30.832031 14.390625 35.492188 19.050781 35.492188 24.785156 Z M 35.492188 24.785156 " fill-opacity="1" fill-rule="nonzero"/><g clip-path="url(#9d3f4c5a72)"><path fill="#4b4949" d="M 1.117188 26.382812 C 1.195312 26.382812 1.277344 26.367188 1.355469 26.34375 L 6.847656 24.582031 C 7.128906 24.496094 7.335938 24.253906 7.390625 23.96875 C 7.449219 23.679688 7.335938 23.382812 7.105469 23.199219 L 5.226562 21.707031 C 9.175781 16.917969 16.609375 9.59375 25.09375 9.59375 C 31.816406 9.59375 37.898438 14.292969 41.824219 18.234375 C 42.105469 18.515625 43.03125 19.492188 43.222656 19.707031 L 44.398438 18.628906 C 44.199219 18.410156 43.238281 17.40625 42.953125 17.109375 C 38.820312 12.953125 32.359375 7.996094 25.09375 7.996094 C 15.945312 7.996094 8.101562 15.695312 3.96875 20.707031 L 2.097656 19.210938 C 1.867188 19.027344 1.554688 18.988281 1.285156 19.097656 C 1.011719 19.21875 0.828125 19.476562 0.804688 19.761719 L 0.316406 25.511719 C 0.292969 25.773438 0.402344 26.039062 0.613281 26.207031 C 0.757812 26.320312 0.933594 26.382812 1.109375 26.382812 Z M 2.273438 21.394531 L 4.9375 23.519531 L 2.011719 24.457031 Z M 2.273438 21.394531 " fill-opacity="1" fill-rule="nonzero"/></g><path fill="#4b4949" d="M 24.300781 0 L 25.898438 0 L 25.898438 4.796875 L 24.300781 4.796875 Z M 24.300781 0 " fill-opacity="1" fill-rule="nonzero"/><path fill="#4b4949" d="M 34.054688 6.570312 L 36.914062 2.722656 L 38.199219 3.675781 L 35.335938 7.527344 Z M 34.054688 6.570312 " fill-opacity="1" fill-rule="nonzero"/><g clip-path="url(#e589e40382)"><path fill="#4b4949" d="M 48.867188 23.222656 L 43.375 24.984375 C 43.097656 25.070312 42.886719 25.3125 42.832031 25.597656 C 42.777344 25.886719 42.886719 26.183594 43.121094 26.367188 L 45 27.863281 C 41.050781 32.648438 33.613281 39.972656 25.132812 39.972656 C 18.410156 39.972656 12.324219 35.273438 8.398438 31.332031 C 8.117188 31.050781 7.191406 30.066406 7 29.859375 L 5.824219 30.9375 C 6.023438 31.15625 6.984375 32.164062 7.273438 32.457031 C 11.40625 36.617188 17.863281 41.574219 25.132812 41.574219 C 34.277344 41.574219 42.121094 33.875 46.253906 28.859375 L 48.125 30.355469 C 48.269531 30.46875 48.445312 30.53125 48.621094 30.53125 C 48.722656 30.53125 48.835938 30.507812 48.941406 30.46875 C 49.210938 30.347656 49.394531 30.09375 49.417969 29.804688 L 49.90625 24.054688 C 49.929688 23.792969 49.820312 23.527344 49.613281 23.359375 C 49.402344 23.191406 49.125 23.144531 48.867188 23.222656 Z M 47.949219 28.171875 L 45.285156 26.046875 L 48.210938 25.109375 Z M 47.949219 28.171875 " fill-opacity="1" fill-rule="nonzero"/></g><path fill="#4b4949" d="M 12.007812 3.675781 L 13.292969 2.722656 L 16.152344 6.570312 L 14.867188 7.523438 Z M 12.007812 3.675781 " fill-opacity="1" fill-rule="nonzero"/><g clip-path="url(#47efa741f8)"><path fill="#4b4949" d="M 24.300781 44.625 L 25.898438 44.625 L 25.898438 49.421875 L 24.300781 49.421875 Z M 24.300781 44.625 " fill-opacity="1" fill-rule="nonzero"/></g><path fill="#4b4949" d="M 34.050781 42.851562 L 35.335938 41.898438 L 38.195312 45.746094 L 36.914062 46.703125 Z M 34.050781 42.851562 " fill-opacity="1" fill-rule="nonzero"/><path fill="#4b4949" d="M 12.003906 45.742188 L 14.863281 41.890625 L 16.148438 42.84375 L 13.289062 46.695312 Z M 12.003906 45.742188 " fill-opacity="1" fill-rule="nonzero"/></svg>